<svg id="undraw_collecting_fjjl" xmlns="http://www.w3.org/2000/svg" xmlns:xlink="http://www.w3.org/1999/xlink" width="266.667" height="277.747" viewBox="0 0 266.667 277.747">
  <defs>
    <linearGradient id="linear-gradient" y1="0.5" x2="1" y2="0.5" gradientUnits="objectBoundingBox">
      <stop offset="0" stop-color="gray" stop-opacity="0.251"/>
      <stop offset="0.54" stop-color="gray" stop-opacity="0.122"/>
      <stop offset="1" stop-color="gray" stop-opacity="0.102"/>
    </linearGradient>
    <linearGradient id="linear-gradient-8" x1="0.5" y1="1" x2="0.5" y2="0" xlink:href="#linear-gradient"/>
    <linearGradient id="linear-gradient-10" x1="0" y1="0.5" y2="0.5" xlink:href="#linear-gradient"/>
    <linearGradient id="linear-gradient-21" x1="0.5" y1="1" x2="0.5" y2="0" xlink:href="#linear-gradient"/>
    <linearGradient id="linear-gradient-26" x1="0" y1="0.5" y2="0.5" xlink:href="#linear-gradient"/>
    <linearGradient id="linear-gradient-44" x1="0" y1="0.5" y2="0.5" xlink:href="#linear-gradient"/>
    <linearGradient id="linear-gradient-49" x1="0.5" y1="1" x2="0.5" y2="0" xlink:href="#linear-gradient"/>
    <linearGradient id="linear-gradient-50" x1="0" y1="0.5" y2="0.5" xlink:href="#linear-gradient"/>
    <linearGradient id="linear-gradient-51" x1="0.5" y1="0.999" x2="0.5" y2="-0.002" xlink:href="#linear-gradient"/>
    <linearGradient id="linear-gradient-52" x1="0" y1="0.5" y2="0.5" xlink:href="#linear-gradient"/>
    <linearGradient id="linear-gradient-53" x1="0.001" y1="0.501" y2="0.501" xlink:href="#linear-gradient"/>
    <linearGradient id="linear-gradient-58" x1="0" y1="0.5" y2="0.5" xlink:href="#linear-gradient"/>
    <linearGradient id="linear-gradient-60" x1="0" y1="0.5" y2="0.5" xlink:href="#linear-gradient"/>
    <linearGradient id="linear-gradient-61" x1="0" y1="0.498" y2="0.498" xlink:href="#linear-gradient"/>
    <linearGradient id="linear-gradient-62" x1="0" y1="0.498" y2="0.498" xlink:href="#linear-gradient"/>
    <linearGradient id="linear-gradient-64" x1="0" y1="0.502" y2="0.502" xlink:href="#linear-gradient"/>
    <linearGradient id="linear-gradient-65" x1="0" y1="0.502" y2="0.502" xlink:href="#linear-gradient"/>
    <linearGradient id="linear-gradient-67" x1="0" y1="0.5" y2="0.5" xlink:href="#linear-gradient"/>
    <linearGradient id="linear-gradient-70" x1="0" y1="0.499" y2="0.499" xlink:href="#linear-gradient"/>
    <linearGradient id="linear-gradient-71" x1="0" y1="0.501" y2="0.501" xlink:href="#linear-gradient"/>
    <linearGradient id="linear-gradient-86" x1="0.5" y1="1.002" x2="0.5" y2="0.003" xlink:href="#linear-gradient"/>
    <linearGradient id="linear-gradient-88" x1="0.5" y1="1" x2="0.5" y2="0" xlink:href="#linear-gradient"/>
  </defs>
  <g id="Group_82" data-name="Group 82" transform="translate(0 46.754)" opacity="0.7">
    <path id="Path_273" data-name="Path 273" d="M454.337,329.314,366.37,308.13v165.8l87.967-23.026Z" transform="translate(-233.266 -242.938)" fill="url(#linear-gradient)"/>
    <g id="Group_62" data-name="Group 62" transform="translate(133.104 65.192)" opacity="0.1">
      <path id="Path_274" data-name="Path 274" d="M454.337,329.314,366.37,308.13v165.8l87.967-23.026Z" transform="translate(-366.37 -308.13)" fill="url(#linear-gradient)"/>
    </g>
    <path id="Path_275" data-name="Path 275" d="M124.23,329.314,212.2,308.13v165.8L124.23,451.363Z" transform="translate(-79.097 -242.938)" fill="url(#linear-gradient)"/>
    <g id="Group_63" data-name="Group 63" transform="translate(45.134 65.192)" opacity="0.17">
      <path id="Path_276" data-name="Path 276" d="M124.23,329.314,212.2,308.13v165.8L124.23,451.363Z" transform="translate(-124.23 -308.13)" fill="url(#linear-gradient)"/>
    </g>
    <path id="Path_277" data-name="Path 277" d="M366.37,241.946l45.595-37.766,87.967,22.569L454.337,263.13Z" transform="translate(-233.266 -176.754)" fill="url(#linear-gradient)"/>
    <path id="Path_278" data-name="Path 278" d="M0,227.206,45.134,263.13,133.1,241.946,88.429,204.18Z" transform="translate(0 -176.754)" fill="url(#linear-gradient)"/>
    <g id="Group_64" data-name="Group 64" transform="translate(0 27.426)" opacity="0.05">
      <path id="Path_279" data-name="Path 279" d="M0,227.206,45.134,263.13,133.1,241.946,88.429,204.18Z" transform="translate(0 -204.18)" fill="url(#linear-gradient)"/>
    </g>
    <g id="Group_65" data-name="Group 65" transform="translate(67.858 46.027)" opacity="0.5">
      <rect id="Rectangle_182" data-name="Rectangle 182" width="65.293" height="60.243" rx="4.5" fill="url(#linear-gradient-8)"/>
    </g>
    <rect id="Rectangle_183" data-name="Rectangle 183" width="63.789" height="58.783" rx="4.5" transform="translate(68.654 46.492)" fill="url(#linear-gradient)"/>
    <rect id="Rectangle_184" data-name="Rectangle 184" width="10.757" height="9.682" rx="4.5" transform="translate(73.569 56.174)" fill="url(#linear-gradient-10)"/>
    <rect id="Rectangle_185" data-name="Rectangle 185" width="42.765" height="1.075" rx="0.538" transform="translate(87.553 56.174)" fill="url(#linear-gradient)"/>
    <rect id="Rectangle_186" data-name="Rectangle 186" width="42.765" height="1.075" rx="0.538" transform="translate(87.553 59.401)" fill="url(#linear-gradient)"/>
    <rect id="Rectangle_187" data-name="Rectangle 187" width="57.824" height="1.075" rx="0.538" transform="translate(72.494 71.117)" fill="url(#linear-gradient)"/>
    <rect id="Rectangle_188" data-name="Rectangle 188" width="57.824" height="1.075" rx="0.538" transform="translate(72.494 74.343)" fill="url(#linear-gradient)"/>
    <rect id="Rectangle_189" data-name="Rectangle 189" width="57.824" height="1.075" rx="0.538" transform="translate(72.494 78.645)" fill="url(#linear-gradient)"/>
    <rect id="Rectangle_190" data-name="Rectangle 190" width="33.348" height="1.075" rx="0.538" transform="translate(72.494 81.875)" fill="url(#linear-gradient)"/>
    <rect id="Rectangle_191" data-name="Rectangle 191" width="57.824" height="1.075" rx="0.538" transform="translate(72.494 86.165)" fill="url(#linear-gradient)"/>
    <rect id="Rectangle_192" data-name="Rectangle 192" width="57.824" height="1.075" rx="0.538" transform="translate(72.494 89.391)" fill="url(#linear-gradient)"/>
    <rect id="Rectangle_193" data-name="Rectangle 193" width="57.824" height="1.075" rx="0.538" transform="translate(72.494 93.697)" fill="url(#linear-gradient)"/>
    <rect id="Rectangle_194" data-name="Rectangle 194" width="33.348" height="1.075" rx="0.538" transform="translate(72.494 96.923)" fill="url(#linear-gradient)"/>
    <g id="Group_66" data-name="Group 66" transform="translate(77.711 59.945)" opacity="0.5">
      <rect id="Rectangle_195" data-name="Rectangle 195" width="65.293" height="60.243" rx="4.5" transform="translate(0 0)" fill="url(#linear-gradient-21)"/>
    </g>
    <rect id="Rectangle_196" data-name="Rectangle 196" width="63.789" height="58.783" rx="4.5" transform="translate(78.507 60.414)" fill="url(#linear-gradient)"/>
    <rect id="Rectangle_197" data-name="Rectangle 197" width="10.757" height="9.682" rx="4.5" transform="translate(83.422 70.096)" fill="url(#linear-gradient-10)"/>
    <rect id="Rectangle_198" data-name="Rectangle 198" width="42.765" height="1.075" rx="0.538" transform="translate(97.41 70.096)" fill="url(#linear-gradient)"/>
    <rect id="Rectangle_199" data-name="Rectangle 199" width="42.765" height="1.075" rx="0.538" transform="translate(97.41 73.322)" fill="url(#linear-gradient)"/>
    <rect id="Rectangle_200" data-name="Rectangle 200" width="57.824" height="1.075" rx="0.538" transform="translate(82.347 85.035)" fill="url(#linear-gradient-26)"/>
    <rect id="Rectangle_201" data-name="Rectangle 201" width="57.824" height="1.075" rx="0.538" transform="translate(82.347 88.265)" fill="url(#linear-gradient-26)"/>
    <rect id="Rectangle_202" data-name="Rectangle 202" width="57.824" height="1.075" rx="0.538" transform="translate(82.347 92.567)" fill="url(#linear-gradient-26)"/>
    <rect id="Rectangle_203" data-name="Rectangle 203" width="33.348" height="1.075" rx="0.538" transform="translate(82.347 95.793)" fill="url(#linear-gradient)"/>
    <rect id="Rectangle_204" data-name="Rectangle 204" width="57.824" height="1.075" rx="0.538" transform="translate(82.347 100.087)" fill="url(#linear-gradient-26)"/>
    <rect id="Rectangle_205" data-name="Rectangle 205" width="57.824" height="1.075" rx="0.538" transform="translate(82.347 103.313)" fill="url(#linear-gradient-26)"/>
    <rect id="Rectangle_206" data-name="Rectangle 206" width="57.824" height="1.075" rx="0.538" transform="translate(82.347 107.619)" fill="url(#linear-gradient-26)"/>
    <rect id="Rectangle_207" data-name="Rectangle 207" width="33.348" height="1.075" rx="0.538" transform="translate(82.347 110.845)" fill="url(#linear-gradient)"/>
    <g id="Group_67" data-name="Group 67" transform="translate(115.68 67.742)" opacity="0.5">
      <rect id="Rectangle_208" data-name="Rectangle 208" width="56.574" height="66.47" fill="url(#linear-gradient-21)"/>
    </g>
    <rect id="Rectangle_209" data-name="Rectangle 209" width="53.631" height="63.931" transform="translate(117.421 68.814)" fill="url(#linear-gradient)"/>
    <g id="Group_68" data-name="Group 68" transform="translate(137.224 77.373)" opacity="0.5">
      <path id="Path_280" data-name="Path 280" d="M620.643,411.016V409.41h-5.831v1.606h-4.1V418.9h14.024v-7.887Zm-5.1-1.028h4.36v1.021h-4.36Z" transform="translate(-610.71 -409.41)" fill="url(#linear-gradient-21)"/>
    </g>
    <rect id="Rectangle_210" data-name="Rectangle 210" width="12.839" height="7.223" transform="translate(137.817 79.244)" fill="url(#linear-gradient)"/>
    <path id="Path_281" data-name="Path 281" d="M389.65,342.76v1.875h.668V343.3h4.011v1.337H395V342.76Z" transform="translate(-248.088 -264.987)" fill="url(#linear-gradient)"/>
    <rect id="Rectangle_211" data-name="Rectangle 211" width="37.715" height="1.606" transform="translate(125.446 96.861)" fill="url(#linear-gradient)"/>
    <rect id="Rectangle_212" data-name="Rectangle 212" width="37.715" height="1.606" transform="translate(125.446 107.426)" fill="url(#linear-gradient)"/>
    <rect id="Rectangle_213" data-name="Rectangle 213" width="37.715" height="1.606" transform="translate(125.446 110.234)" fill="url(#linear-gradient)"/>
    <rect id="Rectangle_214" data-name="Rectangle 214" width="15.916" height="1.606" transform="translate(125.446 104.618)" fill="url(#linear-gradient)"/>
    <g id="Group_69" data-name="Group 69" transform="translate(151.259 104.618)" opacity="0.6">
      <rect id="Rectangle_215" data-name="Rectangle 215" width="11.902" height="1.606" fill="url(#linear-gradient)"/>
    </g>
    <rect id="Rectangle_216" data-name="Rectangle 216" width="11.902" height="1.606" transform="translate(138.685 116.788)" fill="url(#linear-gradient-44)"/>
    <path id="Path_282" data-name="Path 282" d="M124.23,366.44V488.489L212.2,511.058V389.931Z" transform="translate(-79.097 -280.064)" fill="url(#linear-gradient)"/>
    <path id="Path_283" data-name="Path 283" d="M454.337,488.031,366.37,511.058V389.931l87.967-23.491Z" transform="translate(-233.266 -280.064)" fill="url(#linear-gradient)"/>
    <g id="Group_70" data-name="Group 70" transform="translate(133.104 86.376)" opacity="0.07">
      <path id="Path_284" data-name="Path 284" d="M454.337,488.031,366.37,511.058V389.931l87.967-23.491Z" transform="translate(-366.37 -366.44)" fill="url(#linear-gradient)"/>
    </g>
    <g id="Group_71" data-name="Group 71" transform="translate(186.067 157.766)" opacity="0.07">
      <path id="Path_285" data-name="Path 285" d="M512.15,572.611V612.68l35-9.671V562.94Z" transform="translate(-512.15 -562.94)" fill="url(#linear-gradient)"/>
    </g>
    <rect id="Rectangle_217" data-name="Rectangle 217" width="25.944" height="24.926" transform="translate(175.034 76.196)" fill="url(#linear-gradient-49)"/>
    <rect id="Rectangle_218" data-name="Rectangle 218" width="25.13" height="23.807" transform="translate(175.44 76.807)" fill="url(#linear-gradient-50)"/>
    <g id="Group_72" data-name="Group 72" transform="translate(182.67 79.767)" opacity="0.5">
      <path id="Path_286" data-name="Path 286" d="M743.357,417.213V416h-4.443v1.221H735.8v6h10.67v-6.009Zm-3.887-.777H742.8v.777h-3.335Z" transform="translate(-735.8 -416)" fill="url(#linear-gradient-51)"/>
    </g>
    <g id="Group_73" data-name="Group 73" transform="translate(183.121 81.184)" opacity="0.6">
      <rect id="Rectangle_219" data-name="Rectangle 219" width="9.766" height="5.493" fill="url(#linear-gradient-52)"/>
    </g>
    <g id="Group_74" data-name="Group 74" transform="translate(185.969 80.062)" opacity="0.6">
      <path id="Path_287" data-name="Path 287" d="M511.88,349.06v1.428h.512v-1.017h3.052v1.017h.509V349.06Z" transform="translate(-511.88 -349.06)" fill="url(#linear-gradient-53)"/>
    </g>
    <g id="Group_75" data-name="Group 75" transform="translate(183.68 90.95)" opacity="0.6">
      <rect id="Rectangle_220" data-name="Rectangle 220" width="9.054" height="1.221" fill="url(#linear-gradient-52)"/>
    </g>
    <rect id="Rectangle_221" data-name="Rectangle 221" width="15.466" height="1.221" transform="translate(180.272 93.188)" fill="url(#linear-gradient)"/>
    <g id="Group_76" data-name="Group 76" transform="translate(113.53)" opacity="0.5">
      <rect id="Rectangle_222" data-name="Rectangle 222" width="33.613" height="27.611" fill="url(#linear-gradient-49)"/>
    </g>
    <rect id="Rectangle_223" data-name="Rectangle 223" width="32.767" height="26.63" transform="translate(113.922 0.523)" fill="url(#linear-gradient)"/>
    <rect id="Rectangle_224" data-name="Rectangle 224" width="32.767" height="5.94" transform="translate(113.922 0.523)" fill="url(#linear-gradient-58)"/>
    <g id="Group_77" data-name="Group 77" transform="translate(113.922 0.523)" opacity="0.1">
      <rect id="Rectangle_225" data-name="Rectangle 225" width="32.767" height="5.94" fill="url(#linear-gradient-58)"/>
    </g>
    <rect id="Rectangle_226" data-name="Rectangle 226" width="27.546" height="3.459" transform="translate(116.534 8.618)" fill="url(#linear-gradient-60)"/>
    <rect id="Rectangle_227" data-name="Rectangle 227" width="20.105" height="1.173" transform="translate(116.534 14.688)" fill="url(#linear-gradient-61)"/>
    <rect id="Rectangle_228" data-name="Rectangle 228" width="13.054" height="1.173" transform="translate(116.534 16.712)" fill="url(#linear-gradient-62)"/>
    <rect id="Rectangle_229" data-name="Rectangle 229" width="17.232" height="1.173" transform="translate(116.534 18.736)" fill="url(#linear-gradient-62)"/>
    <rect id="Rectangle_230" data-name="Rectangle 230" width="20.105" height="1.173" transform="translate(116.534 20.756)" fill="url(#linear-gradient-64)"/>
    <rect id="Rectangle_231" data-name="Rectangle 231" width="6.721" height="1.173" transform="translate(116.534 22.779)" fill="url(#linear-gradient-65)"/>
    <g id="Group_78" data-name="Group 78" transform="translate(162.95 20.734)" opacity="0.5">
      <rect id="Rectangle_232" data-name="Rectangle 232" width="41.664" height="34.22" fill="url(#linear-gradient-21)"/>
    </g>
    <rect id="Rectangle_233" data-name="Rectangle 233" width="40.614" height="33.006" transform="translate(163.437 21.381)" fill="url(#linear-gradient-67)"/>
    <rect id="Rectangle_234" data-name="Rectangle 234" width="40.614" height="7.361" transform="translate(163.437 21.381)" fill="url(#linear-gradient-60)"/>
    <rect id="Rectangle_235" data-name="Rectangle 235" width="34.14" height="4.287" transform="translate(166.67 31.411)" fill="url(#linear-gradient)"/>
    <rect id="Rectangle_236" data-name="Rectangle 236" width="24.919" height="1.457" transform="translate(166.67 38.936)" fill="url(#linear-gradient-70)"/>
    <rect id="Rectangle_237" data-name="Rectangle 237" width="16.182" height="1.457" transform="translate(166.67 41.442)" fill="url(#linear-gradient-71)"/>
    <rect id="Rectangle_238" data-name="Rectangle 238" width="21.359" height="1.457" transform="translate(166.67 43.953)" fill="url(#linear-gradient-70)"/>
    <rect id="Rectangle_239" data-name="Rectangle 239" width="24.919" height="1.457" transform="translate(166.67 46.46)" fill="url(#linear-gradient-70)"/>
    <rect id="Rectangle_240" data-name="Rectangle 240" width="8.334" height="1.457" transform="translate(166.67 48.966)" fill="url(#linear-gradient-71)"/>
    <rect id="Rectangle_241" data-name="Rectangle 241" width="9.708" height="1.293" transform="translate(168.45 32.868)" fill="url(#linear-gradient)"/>
    <g id="Group_79" data-name="Group 79" transform="translate(43.985 87.989)" opacity="0.1">
      <path id="Path_288" data-name="Path 288" d="M121.07,432.595l49.279,12.436,39.608-32.24v-19.8L121.989,370.88Z" transform="translate(-121.07 -370.88)" fill="url(#linear-gradient)"/>
    </g>
    <g id="Group_80" data-name="Group 80" transform="translate(132.872 87.989)" opacity="0.1">
      <path id="Path_289" data-name="Path 289" d="M454.62,432.595l-49.282,12.436-39.608-32.24v-19.8L453.7,370.88Z" transform="translate(-365.73 -370.88)" fill="url(#linear-gradient)"/>
    </g>
    <path id="Path_290" data-name="Path 290" d="M45.134,366.44,0,403.748l87.967,22.107L133.1,389.931Z" transform="translate(0 -280.064)" fill="url(#linear-gradient)"/>
    <path id="Path_291" data-name="Path 291" d="M454.337,366.44l45.595,37.308-87.506,22.107L366.37,389.931Z" transform="translate(-233.266 -280.064)" fill="url(#linear-gradient)"/>
    <g id="Group_81" data-name="Group 81" transform="translate(133.104 86.376)" opacity="0.07">
      <path id="Path_292" data-name="Path 292" d="M454.337,366.44l45.595,37.308-87.506,22.107L366.37,389.931Z" transform="translate(-366.37 -366.44)" fill="url(#linear-gradient)"/>
    </g>
  </g>
  <path id="Path_293" data-name="Path 293" d="M456.1,326.546,368.88,305.54V469.925l87.215-22.83Z" transform="translate(-234.864 -194.535)" fill="#535461"/>
  <path id="Path_294" data-name="Path 294" d="M456.1,326.546,368.88,305.54V469.925l87.215-22.83Z" transform="translate(-234.864 -194.535)" opacity="0.1"/>
  <path id="Path_295" data-name="Path 295" d="M128.83,326.546l87.212-21.006V469.925L128.83,447.549Z" transform="translate(-82.025 -194.535)" fill="#535461"/>
  <path id="Path_296" data-name="Path 296" d="M128.83,324.546l87.212-21.006V468.652L128.83,446.276Z" transform="translate(-82.025 -193.262)" opacity="0.17"/>
  <path id="Path_297" data-name="Path 297" d="M366.88,240.649l45.933-38.169,87.215,22.376-45.933,36.8Z" transform="translate(-233.59 -128.918)" fill="#535461"/>
  <path id="Path_298" data-name="Path 298" d="M7.66,227.31l44.748,35.619,87.212-21.006L95.329,204.48Z" transform="translate(-4.877 -130.191)" fill="#535461"/>
  <path id="Path_299" data-name="Path 299" d="M5.66,225.31,51.5,261.655l87.212-21.006L93.329,202.48Z" transform="translate(-3.604 -128.918)" opacity="0.05"/>
  <g id="Group_83" data-name="Group 83" transform="translate(69.33 92.004)" opacity="0.5">
    <rect id="Rectangle_242" data-name="Rectangle 242" width="64.734" height="59.728" rx="4.5" fill="url(#linear-gradient-21)"/>
  </g>
  <rect id="Rectangle_243" data-name="Rectangle 243" width="63.241" height="58.278" rx="4.5" transform="translate(70.122 92.469)" fill="#f5f5f5"/>
  <rect id="Rectangle_244" data-name="Rectangle 244" width="10.667" height="9.599" rx="4.5" transform="translate(74.994 102.067)" fill="#5abd8c"/>
  <rect id="Rectangle_245" data-name="Rectangle 245" width="42.398" height="1.068" rx="0.534" transform="translate(88.861 102.067)" fill="#e0e0e0"/>
  <rect id="Rectangle_246" data-name="Rectangle 246" width="42.398" height="1.068" rx="0.534" transform="translate(88.861 105.264)" fill="#e0e0e0"/>
  <rect id="Rectangle_247" data-name="Rectangle 247" width="57.33" height="1.068" rx="0.534" transform="translate(73.929 116.879)" fill="#e0e0e0"/>
  <rect id="Rectangle_248" data-name="Rectangle 248" width="57.33" height="1.068" rx="0.534" transform="translate(73.929 120.08)" fill="#e0e0e0"/>
  <rect id="Rectangle_249" data-name="Rectangle 249" width="57.33" height="1.068" rx="0.534" transform="translate(73.929 124.345)" fill="#e0e0e0"/>
  <rect id="Rectangle_250" data-name="Rectangle 250" width="33.064" height="1.068" rx="0.534" transform="translate(73.929 127.546)" fill="#e0e0e0"/>
  <rect id="Rectangle_251" data-name="Rectangle 251" width="57.33" height="1.068" rx="0.534" transform="translate(73.929 131.8)" fill="#e0e0e0"/>
  <rect id="Rectangle_252" data-name="Rectangle 252" width="57.33" height="1.068" rx="0.534" transform="translate(73.929 135.001)" fill="#e0e0e0"/>
  <rect id="Rectangle_253" data-name="Rectangle 253" width="57.33" height="1.068" rx="0.534" transform="translate(73.929 139.266)" fill="#e0e0e0"/>
  <rect id="Rectangle_254" data-name="Rectangle 254" width="33.064" height="1.068" rx="0.534" transform="translate(73.929 142.467)" fill="#e0e0e0"/>
  <g id="Group_84" data-name="Group 84" transform="translate(79.099 105.806)" opacity="0.5">
    <rect id="Rectangle_255" data-name="Rectangle 255" width="64.734" height="59.728" rx="4.5" fill="url(#linear-gradient-49)"/>
  </g>
  <rect id="Rectangle_256" data-name="Rectangle 256" width="63.241" height="58.278" rx="4.5" transform="translate(79.891 106.271)" fill="#fff"/>
  <rect id="Rectangle_257" data-name="Rectangle 257" width="10.667" height="9.599" rx="4.5" transform="translate(84.763 115.869)" fill="#5abd8c"/>
  <rect id="Rectangle_258" data-name="Rectangle 258" width="42.398" height="1.068" rx="0.534" transform="translate(98.63 115.869)" fill="#e0e0e0"/>
  <rect id="Rectangle_259" data-name="Rectangle 259" width="42.398" height="1.068" rx="0.534" transform="translate(98.63 119.066)" fill="#e0e0e0"/>
  <rect id="Rectangle_260" data-name="Rectangle 260" width="57.33" height="1.068" rx="0.534" transform="translate(83.698 130.681)" fill="#e0e0e0"/>
  <rect id="Rectangle_261" data-name="Rectangle 261" width="57.33" height="1.068" rx="0.534" transform="translate(83.698 133.882)" fill="#e0e0e0"/>
  <rect id="Rectangle_262" data-name="Rectangle 262" width="57.33" height="1.068" rx="0.534" transform="translate(83.698 138.147)" fill="#e0e0e0"/>
  <rect id="Rectangle_263" data-name="Rectangle 263" width="33.064" height="1.068" rx="0.534" transform="translate(83.698 141.348)" fill="#e0e0e0"/>
  <rect id="Rectangle_264" data-name="Rectangle 264" width="57.33" height="1.068" rx="0.534" transform="translate(83.698 145.602)" fill="#e0e0e0"/>
  <rect id="Rectangle_265" data-name="Rectangle 265" width="57.33" height="1.068" rx="0.534" transform="translate(83.698 148.803)" fill="#e0e0e0"/>
  <rect id="Rectangle_266" data-name="Rectangle 266" width="57.33" height="1.068" rx="0.534" transform="translate(83.698 153.068)" fill="#e0e0e0"/>
  <rect id="Rectangle_267" data-name="Rectangle 267" width="33.064" height="1.068" rx="0.534" transform="translate(83.698 156.269)" fill="#e0e0e0"/>
  <g id="Group_85" data-name="Group 85" transform="translate(116.745 113.537)" opacity="0.5">
    <rect id="Rectangle_268" data-name="Rectangle 268" width="56.091" height="65.9" fill="url(#linear-gradient-21)"/>
  </g>
  <rect id="Rectangle_269" data-name="Rectangle 269" width="53.173" height="63.382" transform="translate(118.47 114.598)" fill="#fff"/>
  <g id="Group_86" data-name="Group 86" transform="translate(138.104 123.081)" opacity="0.5">
    <path id="Path_300" data-name="Path 300" d="M622.979,408.125V406.53h-5.795v1.595H613.13v7.822h13.9v-7.822Zm-5.086-1.014h4.36v1.014h-4.36Z" transform="translate(-613.13 -406.53)" fill="url(#linear-gradient-49)"/>
  </g>
  <rect id="Rectangle_270" data-name="Rectangle 270" width="12.73" height="7.161" transform="translate(138.692 124.941)" fill="#5abd8c"/>
  <path id="Path_301" data-name="Path 301" d="M391.97,339.88v1.856h.661V340.41h3.978v1.326h.665V339.88Z" transform="translate(-249.565 -216.4)" fill="#5abd8c"/>
  <rect id="Rectangle_271" data-name="Rectangle 271" width="37.391" height="1.591" transform="translate(126.427 142.405)" fill="#e0e0e0"/>
  <rect id="Rectangle_272" data-name="Rectangle 272" width="37.391" height="1.591" transform="translate(126.427 152.879)" fill="#e0e0e0"/>
  <rect id="Rectangle_273" data-name="Rectangle 273" width="37.391" height="1.591" transform="translate(126.427 155.666)" fill="#e0e0e0"/>
  <rect id="Rectangle_274" data-name="Rectangle 274" width="15.778" height="1.591" transform="translate(126.427 150.096)" fill="#e0e0e0"/>
  <rect id="Rectangle_275" data-name="Rectangle 275" width="11.8" height="1.591" transform="translate(152.018 150.096)" fill="#3ad29f" opacity="0.6"/>
  <rect id="Rectangle_276" data-name="Rectangle 276" width="11.8" height="1.591" transform="translate(139.553 162.162)" fill="#5abd8c"/>
  <path id="Path_302" data-name="Path 302" d="M128.83,363.36v121l87.212,22.376,1.177-120.091Z" transform="translate(-82.025 -231.349)" fill="#535461"/>
  <path id="Path_303" data-name="Path 303" d="M456.1,483.909l-87.215,22.83V386.648L456.1,363.36Z" transform="translate(-234.864 -231.349)" fill="#535461"/>
  <path id="Path_304" data-name="Path 304" d="M456.1,483.909l-87.215,22.83V386.648L456.1,363.36Z" transform="translate(-234.864 -231.349)" opacity="0.07"/>
  <path id="Path_305" data-name="Path 305" d="M513.42,567.761v39.724l34.7-9.588V558.17Z" transform="translate(-326.891 -355.383)" opacity="0.07"/>
  <rect id="Rectangle_277" data-name="Rectangle 277" width="25.722" height="24.712" transform="translate(175.589 121.918)" fill="url(#linear-gradient-21)"/>
  <rect id="Rectangle_278" data-name="Rectangle 278" width="24.916" height="23.604" transform="translate(175.993 122.521)" fill="#f5f5f5"/>
  <g id="Group_87" data-name="Group 87" transform="translate(183.164 125.431)" opacity="0.5">
    <path id="Path_306" data-name="Path 306" d="M744.651,414.228V413h-4.407v1.213H737.16v5.951h10.576v-5.936Zm-3.855-.77H744.1v.77H740.8Z" transform="translate(-737.16 -413)" fill="url(#linear-gradient-86)"/>
  </g>
  <rect id="Rectangle_279" data-name="Rectangle 279" width="9.682" height="5.446" transform="translate(183.608 126.859)" fill="#5abd8c" opacity="0.6"/>
  <path id="Path_307" data-name="Path 307" d="M513.16,346.13v1.413h.505v-1.01h3.026v1.01h.5V346.13Z" transform="translate(-326.726 -220.379)" fill="#5abd8c" opacity="0.6"/>
  <g id="Group_88" data-name="Group 88" transform="translate(184.163 136.545)" opacity="0.6">
    <rect id="Rectangle_280" data-name="Rectangle 280" width="8.977" height="1.21" fill="#5abd8c"/>
  </g>
  <rect id="Rectangle_281" data-name="Rectangle 281" width="15.332" height="1.21" transform="translate(180.785 138.765)" fill="#bdbdbd"/>
  <rect id="Rectangle_282" data-name="Rectangle 282" width="25.722" height="24.712" transform="translate(150.932)" fill="url(#linear-gradient-21)"/>
  <rect id="Rectangle_283" data-name="Rectangle 283" width="24.916" height="23.604" transform="translate(151.335 0.607)" fill="#f5f5f5"/>
  <g id="Group_89" data-name="Group 89" transform="translate(158.507 3.531)" opacity="0.5">
    <path id="Path_308" data-name="Path 308" d="M676.781,78.68V77.47h-4.407v1.21H669.29v5.951h10.576V78.68Zm-3.855-.77h3.306v.77h-3.306Z" transform="translate(-669.29 -77.47)" fill="url(#linear-gradient-88)"/>
  </g>
  <rect id="Rectangle_284" data-name="Rectangle 284" width="9.682" height="5.446" transform="translate(158.95 4.941)" fill="#5abd8c" opacity="0.6"/>
  <path id="Path_309" data-name="Path 309" d="M445.29,10.55v1.413h.5v-1.01h3.026v1.01h.5V10.55Z" transform="translate(-283.513 -6.717)" fill="#5abd8c" opacity="0.6"/>
  <g id="Group_90" data-name="Group 90" transform="translate(159.506 14.627)" opacity="0.6">
    <rect id="Rectangle_285" data-name="Rectangle 285" width="8.977" height="1.21" fill="#5abd8c"/>
  </g>
  <rect id="Rectangle_286" data-name="Rectangle 286" width="15.332" height="1.21" transform="translate(156.127 16.847)" fill="#bdbdbd"/>
  <g id="Group_91" data-name="Group 91" transform="translate(114.612 46.372)" opacity="0.5">
    <rect id="Rectangle_287" data-name="Rectangle 287" width="33.326" height="27.375" fill="url(#linear-gradient-49)"/>
  </g>
  <rect id="Rectangle_288" data-name="Rectangle 288" width="32.487" height="26.401" transform="translate(115.001 46.892)" fill="#f2f2f2"/>
  <rect id="Rectangle_289" data-name="Rectangle 289" width="32.487" height="5.889" transform="translate(115.001 46.892)" fill="#5abd8c"/>
  <rect id="Rectangle_290" data-name="Rectangle 290" width="32.487" height="5.889" transform="translate(115.001 46.892)" opacity="0.1"/>
  <rect id="Rectangle_291" data-name="Rectangle 291" width="27.31" height="3.43" transform="translate(117.591 54.917)" fill="#e0e0e0"/>
  <rect id="Rectangle_292" data-name="Rectangle 292" width="19.931" height="1.166" transform="translate(117.591 60.934)" fill="#e0e0e0"/>
  <rect id="Rectangle_293" data-name="Rectangle 293" width="12.941" height="1.166" transform="translate(117.591 62.939)" fill="#e0e0e0"/>
  <rect id="Rectangle_294" data-name="Rectangle 294" width="17.083" height="1.166" transform="translate(117.591 64.945)" fill="#e0e0e0"/>
  <rect id="Rectangle_295" data-name="Rectangle 295" width="19.931" height="1.166" transform="translate(117.591 66.954)" fill="#e0e0e0"/>
  <rect id="Rectangle_296" data-name="Rectangle 296" width="6.667" height="1.166" transform="translate(117.591 68.959)" fill="#e0e0e0"/>
  <g id="Group_92" data-name="Group 92" transform="translate(163.608 66.928)" opacity="0.5">
    <rect id="Rectangle_297" data-name="Rectangle 297" width="41.308" height="33.929" fill="url(#linear-gradient-21)"/>
  </g>
  <rect id="Rectangle_298" data-name="Rectangle 298" width="40.265" height="32.727" transform="translate(164.091 67.568)" fill="#fff"/>
  <rect id="Rectangle_299" data-name="Rectangle 299" width="40.265" height="7.299" transform="translate(164.091 67.568)" fill="#5abd8c"/>
  <rect id="Rectangle_300" data-name="Rectangle 300" width="33.849" height="4.251" transform="translate(167.299 77.515)" fill="#f5f5f5"/>
  <rect id="Rectangle_301" data-name="Rectangle 301" width="24.705" height="1.442" transform="translate(167.299 84.974)" fill="#e0e0e0"/>
  <rect id="Rectangle_302" data-name="Rectangle 302" width="16.044" height="1.442" transform="translate(167.299 87.462)" fill="#e0e0e0"/>
  <rect id="Rectangle_303" data-name="Rectangle 303" width="21.173" height="1.442" transform="translate(167.299 89.947)" fill="#e0e0e0"/>
  <rect id="Rectangle_304" data-name="Rectangle 304" width="24.705" height="1.442" transform="translate(167.299 92.436)" fill="#e0e0e0"/>
  <rect id="Rectangle_305" data-name="Rectangle 305" width="8.262" height="1.442" transform="translate(167.299 94.921)" fill="#e0e0e0"/>
  <rect id="Rectangle_306" data-name="Rectangle 306" width="9.624" height="1.282" transform="translate(169.064 78.957)" fill="#69f0ae"/>
  <path id="Path_310" data-name="Path 310" d="M125.69,428.948l48.857,12.327,39.27-31.964V389.678L126.6,367.76Z" transform="translate(-80.026 -234.151)" opacity="0.1"/>
  <path id="Path_311" data-name="Path 311" d="M456.387,428.948,407.53,441.275l-39.27-31.964V389.678l87.215-21.918Z" transform="translate(-234.469 -234.151)" opacity="0.1"/>
  <path id="Path_312" data-name="Path 312" d="M50.408,363.36,5.66,400.345l87.212,21.918,44.748-35.615Z" transform="translate(-3.604 -231.349)" fill="#535461"/>
  <path id="Path_313" data-name="Path 313" d="M456.1,363.36,501.3,400.345l-86.757,21.918L368.88,386.648Z" transform="translate(-234.864 -231.349)" fill="#535461"/>
  <path id="Path_314" data-name="Path 314" d="M456.1,363.36,501.3,400.345l-86.757,21.918L368.88,386.648Z" transform="translate(-234.864 -231.349)" opacity="0.07"/>
</svg>
