<svg xmlns="http://www.w3.org/2000/svg" xmlns:xlink="http://www.w3.org/1999/xlink" width="311.5" height="225.391" viewBox="0 0 311.5 225.391">
  <defs>
    <linearGradient id="linear-gradient" x1="0.5" y1="1" x2="0.5" gradientUnits="objectBoundingBox">
      <stop offset="0" stop-color="gray" stop-opacity="0.251"/>
      <stop offset="0.54" stop-color="gray" stop-opacity="0.122"/>
      <stop offset="1" stop-color="gray" stop-opacity="0.102"/>
    </linearGradient>
    <linearGradient id="linear-gradient-2" x1="0.799" y1="1" x2="0.799" y2="0" xlink:href="#linear-gradient"/>
  </defs>
  <g id="undraw_Bibliophile_hwqc" transform="translate(0 0)">
    <path id="Path_178" data-name="Path 178" d="M406.465,217.772c-9.849,16.108-8.107,37.987-3.888,55.238,1.412,5.777,3.044,11.868,1.788,18.341-1.537,7.914-7.042,14.153-12.6,17.722-10.138,6.513-21.679,6.38-30.038-.344-7.235-5.811-11.972-15.978-19.351-21.474-12.365-9.2-29.394-3.518-44.208,5.2-10.482,6.164-22.017,13.965-31.655,9.618-6.782-3.059-10.975-11.752-12.919-21.226-.936-4.572-1.49-9.569-3.665-13.049a14.329,14.329,0,0,0-4.93-4.578c-16.9-10.3-39.858-1.531-56.145-13.208-11-7.888-17.208-24.244-19.193-41.756s-.228-36.271,1.961-54.741c1.565-13.124,3.668-27.179,10.5-37.88,7.221-11.319,18.554-16.408,28.38-15.394s18.335,7.319,25.659,15.019c9.156,9.624,17.393,21.931,29.281,25,8.087,2.088,16.96-.407,25.576-1.834,14.4-2.386,28.594-1.779,42.677-.968,13.485.777,27.054,1.765,39.6,6.536,8.881,3.376,15.678,10.456,23.958,15.042,5.4,2.989,11.5,3.345,16.527,7.342a25.288,25.288,0,0,1,8.988,25.593C420.355,202.955,411.69,209.225,406.465,217.772Z" transform="translate(-137.587 -88.476)" fill="#5abd8c" opacity="0.1"/>
    <path id="Path_179" data-name="Path 179" d="M315.963,176.829s-42.5-9.5,11.576-65.1c0,0,23.308,22.092,14.759,49.554a22.577,22.577,0,0,1-25.706,15.675Z" transform="translate(-230.961 -96.737)" fill="#5abd8c"/>
    <path id="Path_180" data-name="Path 180" d="M316.292,176.829c-.933-.208-41.591-10.441,11.576-65.1,0,0,23.308,22.092,14.759,49.554a22.577,22.577,0,0,1-25.706,15.675Z" transform="translate(-231.29 -96.737)" fill="#fff" opacity="0.4"/>
    <path id="Path_181" data-name="Path 181" d="M357,177.154s22.448-33.816,11.019-65.414" transform="translate(-271.435 -96.744)" fill="none" stroke="#535461" stroke-miterlimit="10" stroke-width="1"/>
    <path id="Path_182" data-name="Path 182" d="M954.522,222.047s-7.325-29.492,3.775-50.49a46.029,46.029,0,0,0,4.956-28.7,77.425,77.425,0,0,0-3.506-13.719" transform="translate(-694.691 -109.119)" fill="none" stroke="#535461" stroke-miterlimit="10" stroke-width="2"/>
    <path id="Path_183" data-name="Path 183" d="M970.568,66.567c-.153,3.57-7.059,13.641-7.059,13.641s-6.019-10.626-5.866-14.2a6.469,6.469,0,1,1,12.926.555Z" transform="translate(-698.594 -59.82)" fill="#5abd8c"/>
    <path id="Path_184" data-name="Path 184" d="M1003.611,128.058c-2.068,2.914-13.341,7.616-13.341,7.616s.722-12.191,2.79-15.106a6.469,6.469,0,1,1,10.549,7.49Z" transform="translate(-721.799 -101.085)" fill="#5abd8c"/>
    <path id="Path_185" data-name="Path 185" d="M992.01,239.662c-3.255,1.47-15.36-.159-15.36-.159s6.779-10.158,10.034-11.631a6.469,6.469,0,1,1,5.326,11.791Z" transform="translate(-712.113 -178.925)" fill="#5abd8c"/>
    <path id="Path_186" data-name="Path 186" d="M967.556,328.3c-2.96,2-15.166,2.438-15.166,2.438s4.965-11.157,7.925-13.159a6.469,6.469,0,1,1,7.242,10.722Z" transform="translate(-694.86 -242.342)" fill="#5abd8c"/>
    <path id="Path_187" data-name="Path 187" d="M938.838,153.132c2.452,2.6,14.271,5.684,14.271,5.684s-2.415-11.972-4.867-14.568a6.469,6.469,0,1,0-9.405,8.885Z" transform="translate(-683.965 -118.421)" fill="#5abd8c"/>
    <path id="Path_188" data-name="Path 188" d="M907.5,252.8c3.119,1.733,15.308,1.155,15.308,1.155s-5.872-10.7-8.994-12.446A6.47,6.47,0,0,0,907.5,252.8Z" transform="translate(-660.678 -188.502)" fill="#5abd8c"/>
    <path id="Path_189" data-name="Path 189" d="M896,357.461c2.779,2.244,14.9,3.726,14.9,3.726s-3.992-11.553-6.77-13.789A6.469,6.469,0,1,0,896,357.462Z" transform="translate(-653.046 -263.315)" fill="#5abd8c"/>
    <path id="Path_190" data-name="Path 190" d="M970.568,66.567c-.153,3.57-7.059,13.641-7.059,13.641s-6.019-10.626-5.866-14.2a6.469,6.469,0,1,1,12.926.555Z" transform="translate(-698.594 -59.82)" fill="#fc6681"/>
    <path id="Path_191" data-name="Path 191" d="M1003.611,128.058c-2.068,2.914-13.341,7.616-13.341,7.616s.722-12.191,2.79-15.106a6.469,6.469,0,1,1,10.549,7.49Z" transform="translate(-721.799 -101.085)" fill="#fc6681"/>
    <path id="Path_192" data-name="Path 192" d="M992.01,239.662c-3.255,1.47-15.36-.159-15.36-.159s6.779-10.158,10.034-11.631a6.469,6.469,0,1,1,5.326,11.791Z" transform="translate(-712.113 -178.925)" fill="#fc6681"/>
    <path id="Path_193" data-name="Path 193" d="M967.556,328.3c-2.96,2-15.166,2.438-15.166,2.438s4.965-11.157,7.925-13.159a6.469,6.469,0,1,1,7.242,10.722Z" transform="translate(-694.86 -242.342)" fill="#fc6681"/>
    <path id="Path_194" data-name="Path 194" d="M938.838,153.132c2.452,2.6,14.271,5.684,14.271,5.684s-2.415-11.972-4.867-14.568a6.469,6.469,0,1,0-9.405,8.885Z" transform="translate(-683.965 -118.421)" fill="#fc6681"/>
    <path id="Path_195" data-name="Path 195" d="M907.5,252.8c3.119,1.733,15.308,1.155,15.308,1.155s-5.872-10.7-8.994-12.446A6.47,6.47,0,0,0,907.5,252.8Z" transform="translate(-660.678 -188.502)" fill="#fc6681"/>
    <path id="Path_196" data-name="Path 196" d="M896,357.461c2.779,2.244,14.9,3.726,14.9,3.726s-3.992-11.553-6.77-13.789A6.469,6.469,0,1,0,896,357.462Z" transform="translate(-653.046 -263.315)" fill="#fc6681"/>
    <path id="Path_197" data-name="Path 197" d="M867.52,230s30.72-25.743,37.548-38.726A184.674,184.674,0,0,1,920.6,167.11" transform="translate(-634.503 -136.122)" fill="none" stroke="#535461" stroke-miterlimit="10" stroke-width="2"/>
    <path id="Path_198" data-name="Path 198" d="M1004.626,260.188l-13.286-3S994.471,271.21,1004.626,260.188Z" transform="translate(-722.56 -200.184)" fill="#5abd8c"/>
    <path id="Path_199" data-name="Path 199" d="M962.059,218l7.648,11.455S954.763,230.541,962.059,218Z" transform="translate(-700.309 -172.314)" fill="#5abd8c"/>
    <path id="Path_200" data-name="Path 200" d="M1025.528,225.042l-12.148-2.132S1021.014,234.518,1025.528,225.042Z" transform="translate(-738.235 -175.805)" fill="#5abd8c"/>
    <path id="Path_201" data-name="Path 201" d="M990.374,194.86l6,7.839S985.755,203.7,990.374,194.86Z" transform="translate(-721.045 -155.857)" fill="#5abd8c"/>
    <path id="Path_202" data-name="Path 202" d="M1035.14,189.45s10.354.494,11.553,1.482-1.542,6.782-5.488,5.837S1035.14,189.45,1035.14,189.45Z" transform="translate(-753.71 -152.01)" fill="#5abd8c"/>
    <path id="Path_203" data-name="Path 203" d="M1011.335,157.44s4.226,7.7,4.067,9.164-6.438,3.111-7.709-2.441S1011.335,157.44,1011.335,157.44Z" transform="translate(-734.041 -129.245)" fill="#5abd8c"/>
    <circle id="Ellipse_56" data-name="Ellipse 56" cx="2.888" cy="2.888" r="2.888" transform="translate(284.771 34.197) rotate(-72.43)" fill="#ffd037"/>
    <circle id="Ellipse_57" data-name="Ellipse 57" cx="2.888" cy="2.888" r="2.888" transform="translate(280.252 31.251) rotate(-72.43)" fill="#ffd037"/>
    <path id="Path_204" data-name="Path 204" d="M272.236,182.3s12.42-9.242-3.177-41.591c0,0-20.8-25.706,0-49.967,0,0-45.346,1.155-44.479,43.324S247.253,182.3,247.253,182.3Z" transform="translate(-177.253 -81.81)" fill="#5abd8c"/>
    <path id="Path_205" data-name="Path 205" d="M310.286,182.277s-3.128-22.24-11.5-35.815a29.116,29.116,0,0,1-3.521-8.879,36.35,36.35,0,0,1,10.236-34L318.711,90.71" transform="translate(-226.901 -81.788)" fill="none" stroke="#535461" stroke-miterlimit="10" stroke-width="2"/>
    <path id="Path_206" data-name="Path 206" d="M459.834,150.69s2.854,3.732-1.317,9.364-7.608,10.4-6.218,13.9c0,0,6.291-10.461,11.411-10.609S465.466,156.981,459.834,150.69Z" transform="translate(-338.986 -124.445)" fill="#5abd8c"/>
    <path id="Path_207" data-name="Path 207" d="M460.221,150.69a4.62,4.62,0,0,1,.578,1.17c5,5.869,7.657,11.348,2.856,11.487-4.474.127-9.84,8.128-11.126,10.146a4.339,4.339,0,0,0,.153.459s6.291-10.461,11.412-10.609S465.854,156.981,460.221,150.69Z" transform="translate(-339.373 -124.445)" opacity="0.1"/>
    <path id="Path_208" data-name="Path 208" d="M495.9,165.081c0,1.314-.147,2.377-.329,2.377s-.329-1.066-.329-2.377.185-.7.367-.7S495.9,163.77,495.9,165.081Z" transform="translate(-369.747 -134.082)" fill="#ffd037"/>
    <path id="Path_209" data-name="Path 209" d="M498.279,170.366c-1.155.63-2.158,1.008-2.244.849s.777-.8,1.929-1.427.7-.17.786,0S499.432,169.736,498.279,170.366Z" transform="translate(-370.309 -137.798)" fill="#ffd037"/>
    <path id="Path_210" data-name="Path 210" d="M411.234,150.69s-2.854,3.732,1.317,9.364,7.608,10.4,6.218,13.9c0,0-6.291-10.461-11.412-10.609S405.6,156.981,411.234,150.69Z" transform="translate(-305.451 -124.445)" fill="#5abd8c"/>
    <path id="Path_211" data-name="Path 211" d="M411.224,150.69a4.621,4.621,0,0,0-.578,1.17c-5,5.869-7.657,11.348-2.856,11.487,4.474.127,9.84,8.128,11.126,10.146a4.339,4.339,0,0,1-.153.459s-6.3-10.464-11.42-10.606S405.586,156.981,411.224,150.69Z" transform="translate(-305.441 -124.445)" opacity="0.1"/>
    <path id="Path_212" data-name="Path 212" d="M408.62,165.081c0,1.314.147,2.377.329,2.377s.329-1.066.329-2.377-.185-.7-.367-.7S408.62,163.77,408.62,165.081Z" transform="translate(-308.146 -134.082)" fill="#ffd037"/>
    <path id="Path_213" data-name="Path 213" d="M400.594,170.366c1.155.63,2.158,1.008,2.244.849s-.777-.8-1.929-1.427-.7-.17-.786,0S399.441,169.736,400.594,170.366Z" transform="translate(-301.939 -137.798)" fill="#ffd037"/>
    <path id="Path_214" data-name="Path 214" d="M372.25,344.047l-25.3-111.337h-9.4c-.375-4.254-.627-8.376-.722-12.258,0,0-34.082,7.458-61.26-14.118s-59.132,1.866-59.132,1.866l-.124-.09v.012c-2.218-1.571-32.828-22.549-59-1.771-27.167,21.575-61.26,14.118-61.26,14.118-.1,3.931-.349,8.087-.734,12.382H86.591L60.75,344.448s105.046,3.934,141.857.306c1.32,2.79,7.01,4.887,13.826,4.887,7.66,0,13.89-2.649,14.106-5.95C259.194,345.872,320.853,349.358,372.25,344.047Z" transform="translate(-60.75 -157.525)" fill="url(#linear-gradient)"/>
    <path id="Path_215" data-name="Path 215" d="M97.3,323.207,72,432.482S211.264,437.7,222.479,430.4c0,0,86.455,8.737,154.522,1.7L352.226,323.08Z" transform="translate(-68.751 -247.044)" fill="#e2e2ec"/>
    <path id="Path_216" data-name="Path 216" d="M131.316,336.291,107.73,438.169s129.839,4.864,140.295-1.944c0,0,80.6,8.145,144.064,1.58L368.983,336.17Z" transform="translate(-94.161 -256.353)" opacity="0.1"/>
    <path id="Path_217" data-name="Path 217" d="M376.033,225.5s-33.383,7.3-59.984-13.823-57.9,1.825-57.9,1.825-31.294-22.95-57.9-1.825S140.272,225.5,140.272,225.5c-1.051,42.51-20.862,111.36-20.862,111.36s36.511,9.91,84.759-10.17,53.985,7.042,53.985,7.042,5.736-27.124,53.985-7.042,84.759,10.17,84.759,10.17S377.076,268.005,376.033,225.5Z" transform="translate(-102.467 -161.457)" fill="#f1f2fb"/>
    <path id="Path_218" data-name="Path 218" d="M376.75,647.948s44.075-9.91,64.408,4.693c0,0,19.559-17.734,64.937-3.911" transform="translate(-285.481 -474.889)" opacity="0.1"/>
    <ellipse id="Ellipse_58" data-name="Ellipse 58" cx="13.823" cy="5.999" rx="13.823" ry="5.999" transform="translate(141.86 178.527)" fill="#e8eaf8"/>
    <path id="Path_219" data-name="Path 219" d="M599.32,239.55s9.91,50.334.26,121.27" transform="translate(-443.766 -187.639)" opacity="0.1"/>
    <path id="Path_220" data-name="Path 220" d="M224.7,310.746s20.758,4.823,38.726,0,50.958-20.6,61.809,0" transform="translate(-177.347 -230.929)" fill="none" stroke="#000" stroke-miterlimit="10" stroke-width="4" opacity="0.1"/>
    <path id="Path_221" data-name="Path 221" d="M224.7,358.2s20.758,4.823,38.726,0,56.873-4.563,61.809,0" transform="translate(-177.347 -269.517)" fill="none" stroke="#000" stroke-miterlimit="10" stroke-width="4" opacity="0.1"/>
    <path id="Path_222" data-name="Path 222" d="M224.7,395.576s20.758,4.823,38.726,0,50.958-20.6,61.809,0" transform="translate(-177.347 -291.258)" fill="none" stroke="#000" stroke-miterlimit="10" stroke-width="4" opacity="0.1"/>
    <path id="Path_223" data-name="Path 223" d="M224.7,443.071s20.758,4.823,38.726,0,56.873-4.563,61.809,0" transform="translate(-177.347 -329.874)" fill="none" stroke="#000" stroke-miterlimit="10" stroke-width="4" opacity="0.1"/>
    <path id="Path_224" data-name="Path 224" d="M727.3,310.746s-20.758,4.823-38.726,0-50.958-20.6-61.809,0" transform="translate(-463.288 -230.929)" fill="none" stroke="#000" stroke-miterlimit="10" stroke-width="4" opacity="0.1"/>
    <path id="Path_225" data-name="Path 225" d="M727.3,358.2s-20.758,4.823-38.726,0-56.873-4.563-61.809,0" transform="translate(-463.288 -269.517)" fill="none" stroke="#000" stroke-miterlimit="10" stroke-width="4" opacity="0.1"/>
    <path id="Path_226" data-name="Path 226" d="M727.3,395.576s-20.758,4.823-38.726,0-50.958-20.6-61.809,0" transform="translate(-463.288 -291.258)" fill="none" stroke="#000" stroke-miterlimit="10" stroke-width="4" opacity="0.1"/>
    <path id="Path_227" data-name="Path 227" d="M727.3,443.071s-20.758,4.823-38.726,0-56.873-4.563-61.809,0" transform="translate(-463.288 -329.874)" fill="none" stroke="#000" stroke-miterlimit="10" stroke-width="4" opacity="0.1"/>
    <path id="Path_228" data-name="Path 228" d="M929.959,757.974a4.929,4.929,0,0,0,1.941-2.389,2.022,2.022,0,0,0-1.355-2.432c-1.245-.387-2.573.315-3.584,1.025a5.282,5.282,0,0,1-3.483,1.372,3.875,3.875,0,0,0,1.641-4.044,1.568,1.568,0,0,0-.456-.823c-.69-.6-1.944-.344-2.77.13-2.631,1.51-3.365,4.425-3.379,7.05a10.983,10.983,0,0,1-.049-2.906,2.767,2.767,0,0,0-1.337-2.571,4.781,4.781,0,0,0-2.039-.39,4.9,4.9,0,0,0-3.307.768,2.309,2.309,0,0,0,.13,3.313,12.739,12.739,0,0,0,3.423,2.238,7.133,7.133,0,0,1,2.446,1.9,1.732,1.732,0,0,1,.182.341h7.414A21.319,21.319,0,0,0,929.959,757.974Z" transform="translate(-665.521 -550.894)" fill="#5abd8c"/>
    <path id="Path_229" data-name="Path 229" d="M787.731,237.262s.072.416.193,1.155c-.064.116-.127.231-.193.344-2.368,3.986-2.732,9.728-2.51,14.441a47.251,47.251,0,0,0,1.984,11.206,52.386,52.386,0,0,1,2.022,14.557,10.583,10.583,0,0,0,3.316,2.415c.063.194.13.39.188.578a59.051,59.051,0,0,1,2.2,11.152l.745,9.433s5.71,21.35,7.446,25.321c1.236,2.825.965,8.665.7,11.8-.742,2.106-1.646,4.113-2.443,4.332-1.444.41-2.888,3.888-.786,5.635h0a3.343,3.343,0,0,0,.505.347l.084.046.153.078.225.1.115.043.24.081.1.032c.113.032.228.064.352.092a6.3,6.3,0,0,0,4.286-.679,8.646,8.646,0,0,0,4.044-1.944l-.029,1.5h1.733l-.081-3.007c.312-.35.485-.578.485-.578s.052-1.817.251-3.931l-.127,6.785h1.733l-.468-12.521a2,2,0,0,1,.344-.511c1.444-1.444-1.051-6.1-2.342-6.88.578-3.062,2.781-7.484,5.323-15.961,3.723-12.42-.994-24.576-.994-24.576v-9.531c1.251-.537,1.987-.9,1.987-.9s-1.733-10.178,0-17.376c1.124-4.653,1.415-8.786.477-12.74,1.248-4.3,2.256-7.616,2.256-7.616l1.733-17.873c.442-2.683.739-4.979.93-6.932.032-.243.055-.488.066-.731a36.5,36.5,0,0,0,.04-7.654,12.152,12.152,0,0,0,.1-2.2,8.682,8.682,0,0,0,.046-1.135c.248-.289.491-.578.722-.866a12.449,12.449,0,0,0,1.557-2.484c1.909-3.6,1.964-8-.7-11.175-1.641-1.955-2.152-4.061-3.57-6.143-1.3-1.906-1.542-4.191-1.854-6.386a78.153,78.153,0,0,0-1.589-8.107c-.2-.786-1.291-1.268-1.834-1.921-1.049-1.262-4.11-1.219-5.875-1.5-2.963-.471-6.172-.91-8.87.254-1.877.812-3.226,2.288-4.693,3.59-1.58,1.4-4.815,2.077-5.317,3.755-.448.641-.471,1.444.289,2.519a12.176,12.176,0,0,0,2.966,2.547c.139.1.269.2.4.289a10.548,10.548,0,0,0,5.733,11.16q-.043.282-.1.555a33.454,33.454,0,0,1-1.305,4.769c-.321.959-4.029,2.634-6.643,3.709a3.321,3.321,0,0,0-1.06-.731c-1.987-.5-8.688,3.226-9.185,4.468a5.049,5.049,0,0,0,.817,2.513,8.959,8.959,0,0,0,.269,1.629c-.147,2.542.118,6.643,1.4,13.237Zm27.872,2.793c-.092-.176-.188-.355-.289-.54-2.758-5.577-4.4-14.594-.445-19.972.352.038.7.072,1.057.1.234,7.319.1,19.351.1,19.351S815.869,239.393,815.6,240.055Zm-9.846,42.51c.56,2.816,1.219,6.089,1.834,9.063a23.832,23.832,0,0,1-.144,10.49l-2.334-7L804.57,282.8l-.035-.505q.563-.1,1.118-.205Z" transform="translate(-574.557 -134.188)" fill="url(#linear-gradient-2)"/>
    <path id="Path_230" data-name="Path 230" d="M859.683,563.953a23.46,23.46,0,0,1-.141,10.326,13.355,13.355,0,0,1-.578,1.892l.659,26.774.075,3.036a15.27,15.27,0,0,0,1.849.271,8.4,8.4,0,0,0,1.733,0,2.072,2.072,0,0,0,1.358-.578c.271-.332.329-.866-.055-1.643a4.887,4.887,0,0,1-.471-2.758c.023-.266.066-.546.118-.835.578-3.012,2.735-7.368,5.239-15.709,3.665-12.217-.976-24.189-.976-24.189V549.292L856.52,548.07s.578,3.027,1.372,6.961C858.429,557.8,859.076,561.024,859.683,563.953Z" transform="translate(-626.68 -407.05)" fill="#fdc2cc"/>
    <path id="Path_231" data-name="Path 231" d="M859.683,563.953a23.46,23.46,0,0,1-.141,10.326,13.355,13.355,0,0,1-.578,1.892l.659,26.774.075,3.036a15.27,15.27,0,0,0,1.849.271,8.4,8.4,0,0,0,1.733,0,2.072,2.072,0,0,0,1.358-.578c.271-.332.329-.866-.055-1.643a4.887,4.887,0,0,1-.471-2.758c.023-.266.066-.546.118-.835.578-3.012,2.735-7.368,5.239-15.709,3.665-12.217-.976-24.189-.976-24.189V549.292L856.52,548.07s.578,3.027,1.372,6.961C858.429,557.8,859.076,561.024,859.683,563.953Z" transform="translate(-626.68 -407.05)" opacity="0.1"/>
    <path id="Path_232" data-name="Path 232" d="M809.94,552.3a36.662,36.662,0,0,1,1.984,5.15,58.123,58.123,0,0,1,2.169,10.975l.734,9.286s5.62,21.012,7.33,24.923c1.216,2.781.95,8.529.693,11.617-.1,1.254-.205,2.068-.205,2.068l2.493-3.053,3.267-4.006,1.49-1.828.326-.4a15.01,15.01,0,0,1-.953-2.55h0a43.584,43.584,0,0,1-1.487-8.188c-.734-7.573-.976-17.838-.976-17.838l-.387-1.155-2.311-6.906-.534-12.131-.2-4.491Z" transform="translate(-593.554 -410.059)" fill="#fdc2cc"/>
    <path id="Path_233" data-name="Path 233" d="M855.669,730.676a17.384,17.384,0,0,0-2.906,5.745c-.777,2.643-2.143,6.7-3.29,7.03-1.71.488-3.42,5.375.976,6.354s8.064-3.911,8.064-3.911.245-8.552,1.71-10.017-1.222-6.354-2.443-6.842C857.293,728.836,856.467,729.645,855.669,730.676Z" transform="translate(-620.382 -535.727)" fill="#5f5d7e"/>
    <path id="Path_234" data-name="Path 234" d="M851.543,749.083a5.884,5.884,0,0,0,3.431-.312,7.668,7.668,0,0,0,4.8-6.588c.208-2.617.647-6.135,1.539-7.027,1.155-1.155-.289-4.448-1.531-6.022a.662.662,0,0,1,.552-.087c1.222.488,3.911,5.375,2.443,6.842s-1.71,10.016-1.71,10.016-3.659,4.887-8.058,3.9a4.042,4.042,0,0,1-1.75-.806C851.352,749.033,851.445,749.059,851.543,749.083Z" transform="translate(-622.939 -535.738)" opacity="0.1"/>
    <path id="Path_235" data-name="Path 235" d="M886.9,752.4l.471,12.622h-1.71l.237-12.613a.485.485,0,0,1,.5-.459h0A.485.485,0,0,1,886.9,752.4Z" transform="translate(-647.404 -552.043)" fill="#5f5d7e"/>
    <path id="Path_236" data-name="Path 236" d="M886.9,752.4l.471,12.622h-1.71l.237-12.613a.485.485,0,0,1,.5-.459h0A.485.485,0,0,1,886.9,752.4Z" transform="translate(-647.404 -552.043)" opacity="0.15"/>
    <path id="Path_237" data-name="Path 237" d="M848.06,733.212a17.386,17.386,0,0,0-2.906,5.745c-.777,2.643-2.143,6.7-3.29,7.03-1.71.488-3.42,5.375.976,6.354s8.064-3.917,8.064-3.917.245-8.552,1.71-10.016-1.222-6.354-2.443-6.842C849.677,731.384,848.857,732.181,848.06,733.212Z" transform="translate(-614.97 -537.529)" fill="#5f5d7e"/>
    <path id="Path_238" data-name="Path 238" d="M843.926,751.6a5.882,5.882,0,0,0,3.431-.312,7.668,7.668,0,0,0,4.8-6.588c.208-2.617.647-6.135,1.539-7.027,1.155-1.155-.289-4.448-1.531-6.022a.662.662,0,0,1,.552-.087c1.222.488,3.911,5.375,2.443,6.842s-1.707,10.017-1.707,10.017-3.665,4.887-8.064,3.911a4.044,4.044,0,0,1-1.75-.806C843.744,751.559,843.828,751.585,843.926,751.6Z" transform="translate(-617.52 -537.53)" opacity="0.1"/>
    <path id="Path_239" data-name="Path 239" d="M879.251,754.889l.471,12.622H878l.237-12.613a.485.485,0,0,1,.5-.459h0a.485.485,0,0,1,.511.451Z" transform="translate(-641.956 -553.813)" fill="#5f5d7e"/>
    <path id="Path_240" data-name="Path 240" d="M879.251,754.889l.471,12.622H878l.237-12.613a.485.485,0,0,1,.5-.459h0a.485.485,0,0,1,.511.451Z" transform="translate(-641.956 -553.813)" opacity="0.15"/>
    <path id="Path_241" data-name="Path 241" d="M810.79,246.613l9.774,15.394,11.484,1.467s7.085-13.927,6.842-14.661-3.911-2.2-7.33-4.887.734-13.927.734-13.927l-11.238.976c.043.15.087.289.118.456a14.579,14.579,0,0,1-.055,5.855,32.923,32.923,0,0,1-1.288,4.685C819.342,243.436,810.79,246.613,810.79,246.613Z" transform="translate(-594.158 -180.848)" fill="#fdc2cc"/>
    <path id="Path_242" data-name="Path 242" d="M856.47,548.07s.578,3.027,1.372,6.961a56.076,56.076,0,0,0,10.6-3.385v-2.354Z" transform="translate(-626.645 -407.05)" opacity="0.1"/>
    <path id="Path_243" data-name="Path 243" d="M809.94,552.3a36.662,36.662,0,0,1,1.984,5.15c3.4,1.534,7.628,1.49,11.651.806l-.2-4.491Z" transform="translate(-593.554 -410.059)" opacity="0.1"/>
    <path id="Path_244" data-name="Path 244" d="M788.888,322.293c-2.331,3.925-2.689,9.572-2.47,14.228a46.5,46.5,0,0,0,1.953,11.027,51.557,51.557,0,0,1,1.993,14.329c8.307,9.04,28.831-1.222,28.831-1.222s-1.71-10.017,0-17.1c1.19-4.927,1.444-9.268.237-13.428A21.167,21.167,0,0,0,817,324.737c-.323-.514-.638-1.083-.942-1.693-2.831-5.725-4.465-15.129.087-20.316a9.49,9.49,0,0,1,1.589-1.444,16.326,16.326,0,0,0,6.539-8.766,11.788,11.788,0,0,0,.289-5.161c-.488-2.689-7.33-5.132-7.33-5.132.245,8.064-10.017,14.9-10.017,14.9s-11.729-15.149-13.682-15.637-8.552,3.177-9.04,4.4,5.375,10.262,5.375,10.262S793.532,314.475,788.888,322.293Z" transform="translate(-575.433 -217.435)" fill="#d39999"/>
    <path id="Path_245" data-name="Path 245" d="M894.689,317.036a16.326,16.326,0,0,0,6.539-8.766c-.191-4.044-1.155-4.67-1.155-4.67s-8.073,7.816-7.339,10.513a27.951,27.951,0,0,1,.367,4.379A9.488,9.488,0,0,1,894.689,317.036Z" transform="translate(-652.401 -233.19)" opacity="0.1"/>
    <path id="Path_246" data-name="Path 246" d="M851.638,459.423c1.71,5.132,10.262-3.911,10.508-7.819.156-2.5,2.914-12.307,4.878-19.045a21.166,21.166,0,0,0-2.435-5.387c-.323-.514-.638-1.083-.942-1.693-.927,2.279-4.65,11.62-4.433,14.4.245,3.177-1.467,7.819-1.467,7.819S849.928,454.29,851.638,459.423Z" transform="translate(-623.034 -319.868)" opacity="0.1"/>
    <path id="Path_247" data-name="Path 247" d="M872.386,303.59s2.689,1.71,0,18.081l-1.71,17.592s-6.6,21.746-6.842,25.656-8.795,12.948-10.507,7.819,6.109-11.729,6.109-11.729,1.71-4.641,1.467-7.819,4.641-14.9,4.641-14.9.246-21.5-.488-24.189S872.386,303.59,872.386,303.59Z" transform="translate(-624.234 -233.183)" fill="#fdc2cc"/>
    <path id="Path_248" data-name="Path 248" d="M791.243,296.82s-3.177.734,0,17.1l1.955,17.838s4.4,25.657,4.153,28.594,9.531,10.508,10.262,6.354-4.887-11-4.887-11-2.449-5.384-2.449-15.4l-.488-8.064-3.417-29.073Z" transform="translate(-579.253 -228.368)" opacity="0.1"/>
    <path id="Path_249" data-name="Path 249" d="M789.523,296.82s-3.177.734,0,17.1l1.955,17.838s4.4,25.657,4.153,28.594,9.531,10.508,10.262,6.354-4.887-11-4.887-11-2.444-5.375-2.444-15.394l-.488-8.064-3.414-29.082Z" transform="translate(-578.029 -228.368)" fill="#fdc2cc"/>
    <path id="Path_250" data-name="Path 250" d="M787.351,295.377s-1.467,7.819,8.795,10.508-1.222-9.289-1.222-9.289S791.017,290.735,787.351,295.377Z" transform="translate(-577.438 -226.07)" opacity="0.1"/>
    <path id="Path_251" data-name="Path 251" d="M788.192,294.534s-1.464,7.816,8.8,10.5-1.222-9.286-1.222-9.286S791.857,289.889,788.192,294.534Z" transform="translate(-578.036 -225.47)" fill="#d39999"/>
    <path id="Path_252" data-name="Path 252" d="M891.573,295.377s1.467,7.819-8.795,10.508S884,296.6,884,296.6,887.9,290.735,891.573,295.377Z" transform="translate(-642.321 -226.07)" opacity="0.1"/>
    <path id="Path_253" data-name="Path 253" d="M890.712,294.534s1.479,7.816-8.795,10.5,1.222-9.286,1.222-9.286S887.047,289.889,890.712,294.534Z" transform="translate(-641.706 -225.47)" fill="#d39999"/>
    <path id="Path_254" data-name="Path 254" d="M846.55,238.479c1.349.393,2.859-2.767,4.454-2.767,1.69,0,3.281,3.382,4.691,2.666a42.345,42.345,0,0,1,1.785-6.7l-10.874.959A14.561,14.561,0,0,1,846.55,238.479Z" transform="translate(-619.59 -182.042)" opacity="0.1"/>
    <circle id="Ellipse_59" data-name="Ellipse 59" cx="10.383" cy="10.383" r="10.383" transform="translate(221.276 36.201)" fill="#fdc2cc"/>
    <path id="Path_255" data-name="Path 255" d="M814.355,181.147a12.285,12.285,0,0,0,2.92,2.507,32.073,32.073,0,0,1,3.7,3.1,10.947,10.947,0,0,1,2.071,2.565,11.711,11.711,0,0,1,1.031,4.968l1.008,17.483a11.16,11.16,0,0,1-.162,3.466,11.838,11.838,0,0,1-1.251,2.738,24.013,24.013,0,0,1-4.844,6.643c-.716.621-1.589,1.424-1.21,2.238.306.656,1.248.866,2.056.962,3.394.456,7.154.846,10.011-.809a16.994,16.994,0,0,1,3.177-1.906c1.681-.534,3.535.023,5.326.02a16.717,16.717,0,0,0,5.488-1.256,1.966,1.966,0,0,0,.9-.508,1.5,1.5,0,0,0,.257-.69,8.764,8.764,0,0,0,.084-4.278c-.477-1.5-1.733-2.807-1.875-4.361-.185-2.16,1.808-3.919,3.241-5.7,3.05-3.781,3.729-9.225.6-12.954-1.615-1.924-2.12-4-3.515-6.045-1.277-1.874-1.519-4.124-1.825-6.285a77.019,77.019,0,0,0-1.565-7.98c-.194-.774-1.271-1.248-1.805-1.892-1.034-1.242-4.044-1.2-5.777-1.476-2.917-.462-6.065-.9-8.731.251a18.052,18.052,0,0,0-4.621,3.532C817,177.308,812.039,177.88,814.355,181.147Z" transform="translate(-596.265 -139.045)" opacity="0.1"/>
    <path id="Path_256" data-name="Path 256" d="M815.2,179.457a12.285,12.285,0,0,0,2.92,2.507,32.082,32.082,0,0,1,3.7,3.1,10.95,10.95,0,0,1,2.071,2.565,11.711,11.711,0,0,1,1.031,4.968l1.017,17.477a11.158,11.158,0,0,1-.162,3.466,11.841,11.841,0,0,1-1.251,2.738,24.016,24.016,0,0,1-4.844,6.643c-.716.621-1.589,1.424-1.21,2.238.306.656,1.248.866,2.056.962,3.394.456,7.154.846,10.011-.809a17,17,0,0,1,3.177-1.906c1.681-.534,3.535.023,5.326.02a16.716,16.716,0,0,0,5.488-1.256,1.967,1.967,0,0,0,.9-.508,1.505,1.505,0,0,0,.257-.69,8.762,8.762,0,0,0,.084-4.278c-.477-1.5-1.733-2.807-1.874-4.361-.185-2.16,1.808-3.919,3.241-5.7,3.05-3.781,3.729-9.225.6-12.954-1.615-1.924-2.12-4-3.515-6.045-1.277-1.875-1.519-4.124-1.825-6.285a76.97,76.97,0,0,0-1.565-7.98c-.194-.774-1.271-1.248-1.805-1.892-1.034-1.242-4.044-1.2-5.777-1.476-2.917-.462-6.065-.9-8.731.251a18.053,18.053,0,0,0-4.621,3.532C817.834,175.618,812.886,176.19,815.2,179.457Z" transform="translate(-596.867 -137.843)" fill="#865a61"/>
  </g>
</svg>
